PathFileType	4	(X/Y/Z)	C:\Users\WrightLab\Desktop\Jo\P2_Trial11.trc
DataRate	CameraRate	NumFrames	NumMarkers	Units	OrigDataRate	OrigDataStartFrame	OrigNumFrames
100.00	100.00	      14	19	mm	100.00	437	      1163
Frame#	Time	Headset_Front			Headset_Back			Headset_Left			Headset_Right			Left_Shoulder			Right_Shoulder			Sternum			C7			Left Elbow			Right Elbow			Left Wrist			Right Wrist			Left ASIS			Right ASIS			S2			Left Knee			Right Knee			Left Ankle			Right Ankle			
		X1	Y1	Z1	X2	Y2	Z2	X3	Y3	Z3	X4	Y4	Z4	X5	Y5	Z5	X6	Y6	Z6	X7	Y7	Z7	X8	Y8	Z8	X9	Y9	Z9	X10	Y10	Z10	X11	Y11	Z11	X12	Y12	Z12	X13	Y13	Z13	X14	Y14	Z14	X15	Y15	Z15	X16	Y16	Z16	X17	Y17	Z17	X18	Y18	Z18	X19	Y19	Z19	

437	4.360							20.09946	1643.51208	1524.01062				-7.58402	1484.39551	1606.97595	318.44940	1499.44739	1595.21533	162.03944	1370.00903	1541.85950	168.96854	1484.29285	1707.53857	-267.90598	1300.60242	1470.60278	480.03790	1229.08899	1679.98047				535.02618	1282.79578	1489.64172	124.50755	1084.65930	1512.99243	254.50273	1079.17065	1514.23132	171.55902	998.80859	1767.63208	37.51739	486.16486	1601.96228	369.12512	590.89648	1651.71558	-23.51497	153.54333	1721.98987	318.11670	154.37566	1653.94897	
438	4.370							21.38418	1642.81250	1520.72925				-6.10349	1484.24268	1604.02722	320.00732	1498.46667	1593.17065	162.68570	1369.52576	1539.52832	170.29623	1483.83533	1704.84839	-267.40887	1301.60413	1470.62390	479.04001	1227.76001	1680.34937				535.74463	1280.38477	1489.42432	125.41711	1085.21191	1511.35278	255.51317	1078.61584	1511.15747	170.97787	998.05756	1765.17480	40.20021	489.67343	1590.46765	369.39343	590.66553	1651.32568	-19.84421	156.22777	1715.77319	318.66391	153.89105	1651.51868	
439	4.380							22.51910	1642.32202	1517.79492				-5.17154	1484.50354	1601.93799	321.31973	1497.72607	1591.47803	163.24675	1369.41113	1537.56335	170.91533	1484.65503	1702.92834	-265.15042	1300.46704	1468.24585	477.92737	1224.58301	1677.37183				536.27203	1277.60437	1488.72009	125.41607	1086.01611	1507.72986	255.30186	1079.89368	1508.58350	170.57779	998.29193	1764.03406	42.18361	491.70084	1580.82666	370.19232	590.17609	1650.63391	-16.35200	158.91075	1709.56128	318.83218	153.27225	1651.29785	
440	4.390							24.38782	1641.49817	1513.41943				-3.65577	1485.24548	1598.21423	323.09439	1496.76160	1588.76721	164.21428	1369.53967	1534.49182	172.65431	1484.33057	1699.74756	-264.15448	1300.42798	1468.66077	475.93256	1221.22498	1676.40845				536.27893	1274.81665	1488.38965	125.33991	1086.92969	1504.64856	255.69073	1080.73438	1506.96948	169.87561	998.03528	1761.19275	44.10521	493.29425	1570.20728	370.39938	590.08441	1650.61902	-12.54517	161.20642	1702.29309	319.66696	153.16876	1649.00635	
441	4.400							25.22760	1641.41675	1511.24988				-3.24391	1485.82361	1596.21338	324.43524	1496.27002	1585.75146	165.26352	1369.71411	1531.73340	173.27615	1484.64038	1698.15894	-261.35336	1298.19482	1466.85059	474.04694	1218.72534	1673.84216				536.07739	1271.64636	1487.82629	126.80585	1087.58765	1501.54846	256.20724	1080.89722	1502.85034	169.43620	998.21552	1757.95129	46.11060	494.17081	1559.28320	370.80621	589.97931	1650.24792	-8.91355	163.00961	1694.44751	320.43970	153.57158	1647.97205	
442	4.410							26.42753	1641.23987	1507.82666				-2.38450	1486.23169	1593.38794	325.76706	1495.94080	1583.99646	165.95158	1370.05518	1528.95361	174.60526	1484.97693	1695.03088	-259.05377	1295.98669	1465.92896							535.53516	1267.68433	1486.60498	127.39557	1087.89429	1501.15857	256.29205	1080.12964	1501.87988	169.27707	998.65057	1756.18506	47.15558	494.83749	1550.18652	371.00629	589.76312	1649.90747	-4.94638	164.98785	1686.55115	320.99905	153.51135	1646.20557	
443	4.420							27.95459	1640.83508	1503.61035				-0.70482	1486.46570	1589.89417	327.21158	1495.34192	1581.61511	166.52837	1370.35693	1526.17554	175.30984	1485.23364	1692.73206	-255.74329	1291.61536	1467.75952	468.74710	1213.04309	1669.46216				534.98969	1263.75330	1485.79858	127.79492	1088.28467	1496.69897	257.22577	1080.60095	1500.46619	168.49010	999.32678	1753.24097	48.23148	496.39294	1540.00562	371.14679	589.66980	1649.44629	-0.90732	166.01051	1676.43530	321.35547	153.22653	1643.50415	
444	4.430							29.05546	1640.36499	1499.38318				0.09061	1488.07678	1587.36707	328.58020	1495.14258	1578.60437	167.50520	1370.39709	1523.45789	176.01198	1485.94238	1690.03101	-252.71527	1289.27100	1465.18945	465.56097	1211.69739	1670.67224				534.52667	1259.17004	1484.83875	127.78098	1089.04431	1493.28589	258.31961	1081.73804	1496.05627	167.22310	999.23505	1750.53955	48.79954	496.87100	1532.03040	371.28149	589.61926	1649.07935	3.37219	167.53799	1665.95715	321.59949	152.54866	1642.81445	
445	4.440							30.13434	1640.49133	1494.77429				1.21280	1487.90930	1584.39819	329.92700	1494.70264	1576.58325	168.67348	1370.83813	1520.74829	177.38301	1485.64709	1685.65833	-250.04790	1284.61865	1462.02344	462.03436	1208.89905	1668.40259				533.80865	1255.54529	1484.42334	128.62338	1088.58875	1490.09241	258.64182	1081.40991	1491.86804	166.79950	999.34772	1748.22437	49.71841	498.27811	1521.88660	371.59320	589.62018	1648.45850	7.10777	167.71698	1656.65649	322.75549	153.14888	1639.72144	
446	4.450							31.01818	1640.06372	1491.07263				2.15761	1488.14319	1580.33801	331.51038	1494.56531	1573.99951	169.60254	1371.32141	1516.58630	178.00058	1485.56653	1682.51025	-246.39030	1279.70483	1460.39063	458.85739	1206.18420	1665.86438				533.24738	1251.40625	1483.83752	130.10832	1088.85242	1488.40515	259.36890	1080.14172	1490.96484	165.69992	999.34650	1743.95752	50.13322	498.62299	1514.25171	371.95718	589.29321	1648.39063	11.31487	167.98203	1644.46765	323.05170	152.95323	1638.97046	
447	4.460							32.02534	1639.87036	1488.11328				3.24726	1488.10022	1575.98730	332.61163	1494.18311	1571.20251	170.66380	1371.09082	1513.85510	178.37997	1486.39258	1679.58325	-242.76994	1274.32874	1459.79614	455.56671	1205.34253	1666.17078				531.55450	1246.17517	1482.53247	129.72009	1089.34216	1483.54565	260.41101	1080.07593	1488.56616	164.97420	999.82056	1742.37207	50.69026	499.22156	1504.96448	372.16235	588.82544	1647.88220	15.63341	167.82483	1633.50049	322.84207	151.68762	1638.60876	
448	4.470							33.26453	1639.38806	1483.94812				3.92386	1488.40479	1571.64685	333.94827	1493.60889	1568.21802	171.88408	1371.22290	1509.87732	180.26228	1485.89233	1674.83667	-239.52765	1268.80640	1458.55188	453.28387	1201.71057	1662.38745				528.98126	1240.15613	1481.19702	130.76894	1089.01428	1480.67432	260.78943	1079.01819	1487.45496	163.94180	1000.45313	1738.83704	51.24333	499.66241	1495.98279	372.16043	588.59613	1647.69275	19.99431	167.00206	1621.65564	323.35522	151.85564	1637.64832	
449	4.480							33.94191	1639.10181	1479.93469				4.50250	1488.67078	1568.81213	334.69955	1492.59558	1563.79590	173.06294	1371.04077	1506.27429	180.58228	1486.52173	1671.53174	-235.75597	1262.64490	1457.75110	450.10629	1200.19592	1660.36060				527.57642	1235.57922	1479.57434	131.52271	1088.68530	1478.13171	261.97647	1078.35120	1486.34326	162.92470	1000.57733	1736.25366	50.77650	500.14703	1487.40649	371.99631	588.12830	1646.98364	24.46323	165.16614	1607.93250	324.50540	151.91960	1634.79944	
450	4.490							35.60244	1638.55859	1474.28491				5.95974	1487.93384	1563.83301	335.66422	1492.57056	1560.09180	173.80240	1370.74951	1503.19690	180.97780	1486.21667	1667.36694	-232.57024	1256.52722	1457.02979	447.52359	1200.25513	1660.65540				525.85504	1231.22693	1478.64221	132.30339	1089.64465	1473.92224	261.74402	1077.72375	1483.34534	162.08243	1000.63257	1733.36389	50.78048	500.63495	1478.33936	371.91211	587.84515	1646.75330	28.44889	162.72672	1595.41553	324.10297	151.61642	1633.87708	
